<svg xmlns="http://www.w3.org/2000/svg" width="48.094" height="21.62" viewBox="0 0 48.094 21.62">
  <defs>
    <style>
      .cls-1 {
        fill: #040000;
        fill-rule: evenodd;
      }
    </style>
  </defs>
  <path id="Forme_34_copie" data-name="Forme 34 copie" class="cls-1" d="M654.132,1896.33a4.324,4.324,0,0,0-4.316-4.32h-1.529l-4.317-6.16h-5.254v-3.09a0.611,0.611,0,0,0-.616-0.61H616.518a0.611,0.611,0,0,0-.617.61V1884h-3.7v1.23h4.933v-0.62h0v-1.23h20.348v16.03h-10.54a3.735,3.735,0,0,0-7.365,0h-2.444v-1.8h0v-0.05h-3.7v1.24H615.9v1.23a0.62,0.62,0,0,0,.617.62h3.056a3.737,3.737,0,0,0,7.374,0h16.138a3.736,3.736,0,0,0,7.373,0h3.673v-4.32Zm-30.871,6.22a2.505,2.505,0,1,1,2.506-2.51A2.513,2.513,0,0,1,623.261,1902.55Zm23.52-10.54h-5.6v-4.93h2.145Zm-0.009,10.54a2.505,2.505,0,1,1,2.506-2.51A2.513,2.513,0,0,1,646.772,1902.55Zm6.127-3.14h-2.445a3.735,3.735,0,0,0-7.365,0h-4.373v-12.33h1.233v6.17h9.867a3.084,3.084,0,0,1,3.083,3.08v3.08ZM609.118,1884h1.85v1.23h-1.85V1884Zm-3.083,3.7h12.949v1.23H606.035v-1.23Zm8.016,3.08h10.483v1.23H614.051v-1.23Zm2.466,3.7h2.467v1.23h-2.467v-1.23Zm-6.782,0h5.549v1.23h-5.549v-1.23Z" transform="translate(-606.031 -1882.16)"/>
</svg>
