<?xml version="1.0" encoding="utf-8"?>
<!-- Generator: Adobe Illustrator 21.1.0, SVG Export Plug-In . SVG Version: 6.00 Build 0)  -->
<svg version="1.1" id="Calque_1" xmlns="http://www.w3.org/2000/svg" xmlns:xlink="http://www.w3.org/1999/xlink" x="0px" y="0px"
	 viewBox="0 0 327 242.7" style="enable-background:new 0 0 327 242.7;" xml:space="preserve">
<g>
	<polygon points="120.2,12.6 120.2,1.6 64,1.6 64,168.8 73.6,168.8 73.6,68.8 114.7,68.8 114.7,57.8 73.6,57.8 73.6,12.6 	"/>
	<path d="M104.9,138.8c0-16.8,12.2-30.1,29.6-30.1c17.5,0,29.8,13.3,29.8,30.1c0,16.8-12.3,30.1-29.8,30.1
		C117.1,168.9,104.9,155.6,104.9,138.8z M153.9,138.8c0-12.2-8.4-20.8-19.3-20.8c-10.9,0-19.2,8.6-19.2,20.8
		c0,12.2,8.3,20.8,19.2,20.8C145.5,159.6,153.9,151,153.9,138.8z"/>
	<path d="M190.6,110.1h8.6l1.5,7.7c3.1-5.6,8.2-9.1,15.6-9.1c3.6,0,7.2,1.1,9.3,2.3l-3.3,10.1c-2.3-1.3-5.4-2-8.2-2
		c-7.5,0-13.3,6-13.3,18.4v30h-10.2V110.1z"/>
	<g>
		<polygon points="254.4,109.9 254.4,230.4 207.8,230.4 207.8,241.4 264,241.4 264,109.9 		"/>
	</g>
	<circle cx="258.1" cy="62.1" r="5.7"/>
</g>
</svg>
