<?xml version="1.0" encoding="utf-8"?>
<!-- Generator: Adobe Illustrator 20.0.0, SVG Export Plug-In . SVG Version: 6.00 Build 0)  -->
<svg version="1.1" id="Calque_1" xmlns="http://www.w3.org/2000/svg" xmlns:xlink="http://www.w3.org/1999/xlink" x="0px" y="0px"
	 viewBox="0 0 327 242.7" style="enable-background:new 0 0 327 242.7;" xml:space="preserve">
<style type="text/css">
	.st0{fill:#FFFFFF;}
</style>
<g>
	<path class="st0" d="M213.2,101.4c-2.1-2.8-4.8-5-7.8-6.6c-3.2-1.6-6.7-2.5-10.3-2.5c-3.7,0-7.7,0.9-10.7,2.4l-0.2,0.2
		c-0.7,0.4-1.2,0.8-2.2,1.2v-2.8h-11v58h11v-36.3c0-6.8,5.8-12.5,12.9-12.5c4.1,0,7.8,1.8,10.1,4.9l2,2.5l2.5-1.9l5.6-4.2
		L213.2,101.4z"/>
	<path class="st0" d="M131.5,92.3H59.1c-15.8,0-28.7,13.3-28.7,29.5s12.9,29.5,28.7,29.5h72.5c15.8,0,28.7-13.3,28.7-29.5
		S147.4,92.3,131.5,92.3z M131.5,140.3H59.1c-10.1,0-18.2-8.6-18.2-19s8.2-19,18.2-19h72.5c10.1,0,18.2,8.6,18.2,19
		S141.6,140.3,131.5,140.3z"/>
	<path class="st0" d="M28,1.4C12.6,1.4,0,14.5,0,30.5v120.8h0.8h0.9h6.4h0.9H10v-79h24v-10H10V30.6c0-10.3,7.8-18.7,17.5-18.7
		c10.1,0,17.5,7.7,17.5,17.8v0.6h11v-0.6C56,13.8,43.6,1.4,28,1.4z"/>
	<path class="st0" d="M261,93.7v-1.4h-32v9h23V215c0,10.3-8.3,18.6-18,18.6c-10.1,0-18-7.7-18-17.8v-1.4h-10v1.4
		c0,15.9,11.9,28.3,27.5,28.3c15.4,0,27.5-13.1,27.5-29.1V93.7L261,93.7z"/>
	<path class="st0" d="M320.5,99.4c-4.3-4.4-10-6.8-16.1-6.8c-6.2,0-12.1,2.4-16.5,6.7c-4.3,4.3-6.9,10.1-6.9,16.3V129
		c0,12.8,10.6,23.1,23.2,23.1c6.2,0,12.4-2.6,16.7-7.2l1.8-1.9l-2-1.6l-3.1-2.6l-1.7-1.4l-1.5,1.6c-2.6,2.6-6.4,4.1-10.2,4.1
		c-7.8,0-14.3-6.4-14.3-14.2v-1.7h35h2v-2.9v-8.6C327,109.6,324.8,103.8,320.5,99.4z M304.3,101.6c7.8,0,14.2,6.5,14.2,14.4l0,2.4
		H290v-2.7C290,107.9,296.5,101.6,304.3,101.6z"/>
</g>
</svg>
