<svg xmlns="http://www.w3.org/2000/svg" width="60.255" height="53.351" viewBox="0 0 22.094 19.563">
  <defs>
    <style>
      .cls-1 {
        fill: #fff;
        fill-rule: evenodd;
      }
    </style>
  </defs>
  <path id="Forme_65" data-name="Forme 65" class="cls-1" d="M235.314,59.323V54.4a0.739,0.739,0,1,0-1.477,0v4.927a2.217,2.217,0,1,0,1.477,0h0Zm-9.968,1.351a1.734,1.734,0,0,0-1.711,2.375l2.757,8.272a2.92,2.92,0,0,0,2.643,1.908h11.081a2.918,2.918,0,0,0,2.643-1.908l2.757-8.272a1.733,1.733,0,0,0-1.708-2.375h-5.539a0.739,0.739,0,1,0,0,1.477h5.539c0.31,0,.406.133,0.307,0.431l-2.757,8.272a1.451,1.451,0,0,1-1.242.9H229.035a1.453,1.453,0,0,1-1.242-.9l-2.757-8.272c-0.1-.3,0-0.431.31-0.431h5.537a0.739,0.739,0,1,0,0-1.477h-5.537Zm8.491,0.739a0.739,0.739,0,1,1,.739.739,0.739,0.739,0,0,1-.739-0.739h0Z" transform="translate(-223.531 -53.656)"/>
</svg>
