<?xml version="1.0" encoding="utf-8"?>
<!-- Generator: Adobe Illustrator 21.1.0, SVG Export Plug-In . SVG Version: 6.00 Build 0)  -->
<svg version="1.1" id="Calque_1" xmlns="http://www.w3.org/2000/svg" xmlns:xlink="http://www.w3.org/1999/xlink" x="0px" y="0px"
	 viewBox="0 0 454 480" style="enable-background:new 0 0 454 480;" xml:space="preserve">
<style type="text/css">
	.st0{fill:#FED147;}
</style>
<rect class="st0" width="454" height="480"/>
<g>
	<polygon points="177,117 177,105 114,105 114,294 125,294 125,181 171,181 171,168 125,168 125,117 	"/>
	<path d="M160,260.1c0-19,13.8-34.1,33.6-34.1c19.8,0,33.7,15.1,33.7,34.1c0,19-13.9,34.1-33.7,34.1
		C173.8,294.2,160,279.1,160,260.1z M215.5,260.1c0-13.8-9.5-23.6-21.9-23.6c-12.4,0-21.7,9.8-21.7,23.6c0,13.8,9.4,23.6,21.7,23.6
		C206,283.7,215.5,273.9,215.5,260.1z"/>
	<path d="M257.2,227.5h9.8l1.7,8.7c3.5-6.4,9.2-10.3,17.7-10.3c4,0,8.2,1.3,10.5,2.6l-3.8,11.5c-2.6-1.4-6.1-2.2-9.2-2.2
		c-8.5,0-15.1,6.8-15.1,20.8v34h-11.6V227.5z"/>
	<g>
		<polygon points="329,227 329,364 277,364 277,376 340,376 340,227 		"/>
	</g>
	<circle cx="333.6" cy="173.1" r="6.4"/>
</g>
</svg>
