<?xml version="1.0" encoding="utf-8"?>
<!-- Generator: Adobe Illustrator 21.1.0, SVG Export Plug-In . SVG Version: 6.00 Build 0)  -->
<svg version="1.1" id="Calque_1" xmlns="http://www.w3.org/2000/svg" xmlns:xlink="http://www.w3.org/1999/xlink" x="0px" y="0px"
	 viewBox="0 0 327 242.7" style="enable-background:new 0 0 327 242.7;" xml:space="preserve">
<style type="text/css">
	.st0{fill:#FFFFFF;}
</style>
<g>
	<polygon class="st0" points="119.2,11.6 119.2,0.6 63,0.6 63,167.8 72.6,167.8 72.6,67.8 113.7,67.8 113.7,56.8 72.6,56.8 
		72.6,11.6 	"/>
	<path class="st0" d="M103.9,137.8c0-16.8,12.2-30.1,29.6-30.1c17.5,0,29.8,13.3,29.8,30.1c0,16.8-12.3,30.1-29.8,30.1
		C116.1,167.9,103.9,154.6,103.9,137.8z M152.9,137.8c0-12.2-8.4-20.8-19.3-20.8c-10.9,0-19.2,8.6-19.2,20.8
		c0,12.2,8.3,20.8,19.2,20.8C144.5,158.6,152.9,150,152.9,137.8z"/>
	<path class="st0" d="M189.6,109.1h8.6l1.5,7.7c3.1-5.6,8.2-9.1,15.6-9.1c3.6,0,7.2,1.1,9.3,2.3l-3.3,10.1c-2.3-1.3-5.4-2-8.2-2
		c-7.5,0-13.3,6-13.3,18.4v30h-10.2V109.1z"/>
	<g>
		<polygon class="st0" points="253.4,108.9 253.4,229.4 206.8,229.4 206.8,240.4 263,240.4 263,108.9 		"/>
	</g>
	<circle class="st0" cx="257.1" cy="61.1" r="5.7"/>
</g>
</svg>
