<?xml version="1.0" encoding="utf-8"?>
<!-- Generator: Adobe Illustrator 20.0.0, SVG Export Plug-In . SVG Version: 6.00 Build 0)  -->
<svg version="1.1" id="Calque_1" xmlns="http://www.w3.org/2000/svg" xmlns:xlink="http://www.w3.org/1999/xlink" x="0px" y="0px"
	 viewBox="0 0 60.3 53.4" style="enable-background:new 0 0 60.3 53.4;" xml:space="preserve">
<path id="Forme_65" d="M32.1,15.5V2c0-1.1-0.8-2-1.9-2.1c-1.1,0-2,0.8-2.1,1.9c0,0,0,0.1,0,0.1v13.4c-3.1,1.1-4.8,4.6-3.7,7.7
	c1.1,3.1,4.6,4.8,7.7,3.7c3.1-1.1,4.8-4.6,3.7-7.7C35.2,17.4,33.9,16.1,32.1,15.5L32.1,15.5L32.1,15.5z M5,19.1
	C2.3,19,0.1,21,0,23.6c0,0.7,0.1,1.4,0.3,2l7.5,22.6c1.1,3,4,5.1,7.2,5.2h30.2c3.2-0.1,6.1-2.2,7.2-5.2L60,25.6
	c1-2.4-0.2-5.2-2.6-6.1c-0.6-0.3-1.3-0.4-2-0.3H40.2c-1.1,0-2,0.8-2.1,1.9c0,1.1,0.8,2,1.9,2.1c0,0,0.1,0,0.1,0h15.1
	c0.8,0,1.1,0.4,0.8,1.2l-7.5,22.6c-0.6,1.4-1.9,2.3-3.4,2.5H15c-1.5-0.1-2.8-1.1-3.4-2.5L4.1,24.3c-0.3-0.8,0-1.2,0.8-1.2h15.1
	c1.1,0,2-0.8,2.1-1.9c0-1.1-0.8-2-1.9-2.1c0,0-0.1,0-0.1,0L5,19.1L5,19.1z M28.1,21.2c0-1.1,0.9-2,2-2s2,0.9,2,2c0,1.1-0.9,2-2,2
	l0,0C29,23.2,28.1,22.3,28.1,21.2L28.1,21.2z"/>
</svg>
